<svg xmlns="http://www.w3.org/2000/svg" viewBox="0 0 213.79 81.12"><defs><style>.cls-1{fill:#fff;}</style></defs><g id="Capa_2" data-name="Capa 2"><g id="Capa_1-2" data-name="Capa 1"><path class="cls-1" d="M44.72,81.12a1.66,1.66,0,0,1-1.14-.45.44.44,0,0,1-.23-.15,1.6,1.6,0,0,1-.74-.51.55.55,0,0,1-.22-.18,3.3,3.3,0,0,1-.75-.63l-.12-.12a3.91,3.91,0,0,1-.74-.51.43.43,0,0,1-.27-.12A.59.59,0,0,1,40,78a1.16,1.16,0,0,1,0-.31v-.08c0-.7-.13-.85-.77-1.1l-.17,0a1.08,1.08,0,0,1-.51-.24.68.68,0,0,1-.45-.32,1.71,1.71,0,0,0-.25-.23,1.73,1.73,0,0,1-1.23-1,1.72,1.72,0,0,1-.37-.35L36,74.27l-.72-.17A.56.56,0,0,1,35,74a.42.42,0,0,1-.25-.12h0a.37.37,0,0,1-.21-.08l-.06,0a.56.56,0,0,1-.31-.17,6.26,6.26,0,0,1-1.8-.89s0,0,0,0a.9.9,0,0,1-.26-.15,2.43,2.43,0,0,1-1-.37.67.67,0,0,1-.31-.18.93.93,0,0,1-.52-.41.34.34,0,0,1-.15-.14.4.4,0,0,1-.15-.14l-1.33-.63a1,1,0,0,1-.49-.4.31.31,0,0,1-.11-.09.27.27,0,0,1-.18-.07A.19.19,0,0,1,27.7,70a.39.39,0,0,1-.21-.09l0,0a.39.39,0,0,1-.2-.08.34.34,0,0,1-.06-.06.29.29,0,0,1-.21-.08l-.06-.05a.29.29,0,0,1-.2-.08l-.06,0a.37.37,0,0,1-.21-.08.12.12,0,0,1-.05,0,.42.42,0,0,1-.21-.08l-.06-.05a.46.46,0,0,1-.21-.08l-.05,0a.39.39,0,0,1-.21-.09.3.3,0,0,1-.09-.1s0,0-.06,0a.25.25,0,0,1-.11-.13.69.69,0,0,1-.31-.41.92.92,0,0,1-.23-.37.32.32,0,0,1-.11-.12l-.07-.06-.05-.06a.46.46,0,0,1-.15-.16.59.59,0,0,1-.31-.4h0a.27.27,0,0,1-.09-.12,1.1,1.1,0,0,1-.33-.31.64.64,0,0,1-.26-.13.44.44,0,0,1-.27-.17.87.87,0,0,1-.56-.4.41.41,0,0,1-.16-.16h0a.36.36,0,0,1-.11-.15.36.36,0,0,1-.12-.13.35.35,0,0,1-.06-.16.17.17,0,0,1-.06-.06.36.36,0,0,1-.08-.19A.44.44,0,0,1,22,65a.68.68,0,0,1-.3-.4.58.58,0,0,1-.15-.31l-.06-.06A1.51,1.51,0,0,1,20.82,63a1,1,0,0,0-.09-.16l-.08-.13a.48.48,0,0,1-.23-.45.4.4,0,0,1,.21-.26.18.18,0,0,1,.05-.07.35.35,0,0,1,.13-.11.29.29,0,0,1,.11-.11.38.38,0,0,1,.13-.06,1.73,1.73,0,0,0,0-1.19,3.46,3.46,0,0,1-1.18-1.88l0-.12a.61.61,0,0,1-.27-.39.43.43,0,0,1-.12-.17,2.08,2.08,0,0,1-.51-.88.59.59,0,0,1-.18-.32l-.42-.46-.18-.12-.2-.19a1.7,1.7,0,0,1-.72-1.38,2.51,2.51,0,0,0-.08-.57c0-.1-.05-.21-.07-.31l0-.12a.74.74,0,0,1-.23-.35.24.24,0,0,1-.09-.08l0,0a.6.6,0,0,1-.12-.11.71.71,0,0,1-.34-.23l-.25,0a.91.91,0,0,1-.58-.42.87.87,0,0,1,0-.64.38.38,0,0,0,0-.28l0-.07a.46.46,0,0,0-.06-.16,1.08,1.08,0,0,1-.11-.37.12.12,0,0,1,0-.05.42.42,0,0,1-.08-.2.54.54,0,0,1-.13-.25,1.05,1.05,0,0,1-.24-.37,1.32,1.32,0,0,1-.39-.52,1,1,0,0,1-.28-.42.94.94,0,0,1-.25-.37.53.53,0,0,1-.18-.32,1.2,1.2,0,0,1-.26-.5.59.59,0,0,1-.14-.35,2.59,2.59,0,0,1-.36-1,.53.53,0,0,1-.15-.37s0,0,0-.06l-.08-.15a1.87,1.87,0,0,1-.29-.75.53.53,0,0,1-.15-.46l0-.05a4.44,4.44,0,0,1-.57-.76.79.79,0,0,1-.18-.6h0a1.16,1.16,0,0,1-.26-.61.6.6,0,0,1-.13-.25.8.8,0,0,1-.26-.66c0-.12,0-.25,0-.37v0a1.12,1.12,0,0,1-.37-.49A1,1,0,0,1,10,40.3a4.83,4.83,0,0,0-.59-.71,5.87,5.87,0,0,1-.64-.75.55.55,0,0,1-.16-.18,1,1,0,0,1-.42-.51v0a1,1,0,0,1-.27-.42.49.49,0,0,1-.15-.34,1.48,1.48,0,0,1-.28-.67l-.62-1.21a1.18,1.18,0,0,1-.25-.4L6.57,35l0-.05-.07,0a.18.18,0,0,1,0-.07.31.31,0,0,1-.13-.1.74.74,0,0,1-.44-.45.93.93,0,0,1-.26-.39.32.32,0,0,1-.11-.12.35.35,0,0,1-.11-.1,1.32,1.32,0,0,1-.5-.27l-.14-.11a3.7,3.7,0,0,1-.89-.5.66.66,0,0,1-.33-.19A10.24,10.24,0,0,1,2.22,32L2,31.9a.64.64,0,0,1-.34-.15.81.81,0,0,1-.53-.3.49.49,0,0,1-.22-.27A1,1,0,0,1,.82,30a.45.45,0,0,1,.23-.22l.08-.06h0a.42.42,0,0,1,.32-.23.48.48,0,0,1,.37.12l.07,0a.34.34,0,0,0,0-.27A1.39,1.39,0,0,0,1.81,29a.54.54,0,0,0-.05-.11l0,0a1.42,1.42,0,0,1-.34-.49.43.43,0,0,1-.13-.14.15.15,0,0,1-.06,0l-.06-.07-.08-.06L1,28a.67.67,0,0,1-.17-.15s0-.05,0-.06c-.31-.49-.29-.87.06-1.13l0,0h0a1.21,1.21,0,0,1-.18-.23l0-.07a.21.21,0,0,1,0-.06l0,0a.49.49,0,0,1-.1-.13.56.56,0,0,1-.33-.49A.62.62,0,0,1,0,25.24a.64.64,0,0,1,.15-.4c0-.06,0-.13,0-.2a1.1,1.1,0,0,1,.13-.79.53.53,0,0,1,.17-.43,2.28,2.28,0,0,1,.65-.78,2.77,2.77,0,0,0,.25-.24A1.25,1.25,0,0,1,1.62,22a1.61,1.61,0,0,1,.88-.86c.09-.08.17-.17.25-.25a3.1,3.1,0,0,1,.64-.54A.91.91,0,0,1,4,20l.18-.2a.31.31,0,0,1,.42,0,.3.3,0,0,1,0,.42l-.25.28a.36.36,0,0,1-.22.09h0a.34.34,0,0,0-.3.13.28.28,0,0,1-.1.09,2,2,0,0,0-.53.45l-.33.32-.09.05a1,1,0,0,0-.62.61.36.36,0,0,1-.1.14.64.64,0,0,0-.18.28.22.22,0,0,1-.05.08l-.33.31a1.71,1.71,0,0,0-.52.63.32.32,0,0,1-.1.13.24.24,0,0,1,0,.12.29.29,0,0,1-.07.18c-.09.1-.09.2-.07.44a1.93,1.93,0,0,1,0,.42.26.26,0,0,1-.09.17s-.05.07-.05.08l.05.06a.3.3,0,0,1,.08.27s0,0,.09.05a.29.29,0,0,1,.16.13l.06,0a.35.35,0,0,1,.08.13.29.29,0,0,1,0,.1l0,0a.24.24,0,0,0,.08.11.62.62,0,0,1,.25.48.64.64,0,0,1-.3.46s-.09.07.08.33a.26.26,0,0,1,.16.09l0,0,0,0a.23.23,0,0,1,.11.07.15.15,0,0,1,.06.09l.07.07,0,.05h0a.18.18,0,0,1,.07.05.28.28,0,0,1,.1.27,1.27,1.27,0,0,0,.22.26l.07.08.06.08.06.14a2.43,2.43,0,0,1,.16.37,1.11,1.11,0,0,1-.2.92.39.39,0,0,1-.58.09h0a.29.29,0,0,1-.16,0l-.22.15h0c-.12.21-.12.3.13.62l0,0a.25.25,0,0,1,.12.08.37.37,0,0,1,.08.15.45.45,0,0,0,.22.06.28.28,0,0,1,.21.12l.1,0,.07,0,.23.12a7.62,7.62,0,0,0,1.29.62.26.26,0,0,1,.16.13l.19.07,0,0a3.55,3.55,0,0,0,.82.46l.23.16a.72.72,0,0,0,.35.19.26.26,0,0,1,.23.13.24.24,0,0,1,.11.06l0,0,0,0a.28.28,0,0,1,.14.12.31.31,0,0,1,0,.23.33.33,0,0,0,.1.11.36.36,0,0,1,.1.11l0,.07s0,.09.05.12a.27.27,0,0,1,.26,0,.21.21,0,0,1,.1.14h0l.07.09.09.06a.25.25,0,0,1,.08.12.29.29,0,0,1,.13.25s0,.1.12.2l0,0,0,.06.65,1.29a.17.17,0,0,1,0,.1,1,1,0,0,0,.22.49.31.31,0,0,1,.07.21h0a.3.3,0,0,1,.12.2.35.35,0,0,0,.14.22.31.31,0,0,1,.09.11l0,.09c.08.19.11.23.18.24a.29.29,0,0,1,.19.15.24.24,0,0,1,.11.06.33.33,0,0,1,.09.2,5.12,5.12,0,0,0,.53.62,4.42,4.42,0,0,1,.69.85.09.09,0,0,1,0,.07.49.49,0,0,0,.15.25.26.26,0,0,1,.1.14.73.73,0,0,0,.29.36.26.26,0,0,1,.13.22l0,.17c0,.14,0,.29,0,.44s0,.19.09.22a.27.27,0,0,1,.14.19.31.31,0,0,1,.16.14.3.3,0,0,1,0,.29.49.49,0,0,0,.16.32.3.3,0,0,1,.1.2v.17c0,.14,0,.16,0,.18l.07.09a3.66,3.66,0,0,0,.51.68l.13.15a.27.27,0,0,1,.07.21.34.34,0,0,1,0,.1v0a.3.3,0,0,1,.14.27,1.17,1.17,0,0,0,.22.61c0,.07.07.13.1.19a.59.59,0,0,1,.06.25v0a.29.29,0,0,1,.14.24,2.05,2.05,0,0,0,.34.93.27.27,0,0,1,0,.12v.06a.31.31,0,0,1,.13.24.59.59,0,0,0,.17.35.24.24,0,0,1,.06.11l0,.07h0a.26.26,0,0,1,.13.17.42.42,0,0,0,.15.24.23.23,0,0,1,.11.15.41.41,0,0,0,.14.24.24.24,0,0,1,.12.14.73.73,0,0,0,.27.38.28.28,0,0,1,.11.13l0,.07a.46.46,0,0,0,0,.09.29.29,0,0,1,.18.07.28.28,0,0,1,.09.27l.06.06,0,0a.33.33,0,0,1,0,.17l.07.07a.3.3,0,0,1,0,.26s0,.08.05.2a1.08,1.08,0,0,1,.1.27,1,1,0,0,1,0,.67.28.28,0,0,0,0,.18.35.35,0,0,0,.19.12l.33,0a.3.3,0,0,1,.22.16s0,0,.06,0a.27.27,0,0,1,.2,0,.28.28,0,0,1,.18.2l.06,0a.41.41,0,0,1,.05.09.27.27,0,0,1,.14.22.32.32,0,0,0,0,.09.28.28,0,0,1,.12,0,.3.3,0,0,1,.13.33v0l0,.1c0,.11.05.2.07.3a2.86,2.86,0,0,1,.1.73c0,.38.19.6.53.92l.18.17.05,0h0a.31.31,0,0,1,.25.25l.28.3.07,0a.3.3,0,0,1,.16.31v0a.24.24,0,0,1,.1.14,2.24,2.24,0,0,0,.31.64.27.27,0,0,1,.24.18s0,0,0,0a.13.13,0,0,1,.07.06.28.28,0,0,1,.06.29l.05,0a.27.27,0,0,1,.19.21l.05.25a2.89,2.89,0,0,0,1,1.56.44.44,0,0,1,.13.18l0,.06a2.28,2.28,0,0,1,0,1.63v.08a.36.36,0,0,1-.07.18.29.29,0,0,1-.27.1.34.34,0,0,1-.08.09h0a.23.23,0,0,1,0,.14l0,0a.84.84,0,0,1,.19.53c0,.34.14.52.44.81l0,0,.06,0a.28.28,0,0,1,.17.29v0a.29.29,0,0,1,.12.23c0,.08,0,.09.06.1a.26.26,0,0,1,.17.13.28.28,0,0,1,.14.1.24.24,0,0,1,0,.2.23.23,0,0,1,.07.07.26.26,0,0,1,.06.19s.06,0,.07.08h0a.25.25,0,0,1,.12.07.18.18,0,0,1,.06.09.29.29,0,0,1,.11.11.28.28,0,0,1,0,.15.42.42,0,0,0,.25.11.3.3,0,0,1,.21.13.3.3,0,0,1,.18.06l.06.06H24a.29.29,0,0,1,.25.19.27.27,0,0,1,0,.13.27.27,0,0,0,.13.1.34.34,0,0,1,.2.17l.08.06a.3.3,0,0,1,.07.24s0,.06.07.08a.3.3,0,0,1,.14.11.24.24,0,0,1,.1,0,.28.28,0,0,1,.08.11.27.27,0,0,1,.08.07s0,0,0,0a.31.31,0,0,1,.19.2.25.25,0,0,1,0,.17.58.58,0,0,0,.11.13.27.27,0,0,1,.1.16c0,.12.07.14.1.15a.24.24,0,0,1,.15.13.26.26,0,0,1,.11.07s0,0,0,0h0a.25.25,0,0,1,.2,0,.24.24,0,0,1,.08.09.34.34,0,0,1,.19.07l0,0,0,0a.28.28,0,0,1,.15,0,.24.24,0,0,1,.11.09h0a.34.34,0,0,1,.19,0,.25.25,0,0,1,.08.1.26.26,0,0,1,.19.07l0,0,0,0a.29.29,0,0,1,.2.07l.06.06a.28.28,0,0,1,.21.07l0,0s0,0,0,0a.33.33,0,0,1,.17,0,.28.28,0,0,1,.1.09h.1a.28.28,0,0,1,.19.13.3.3,0,0,1,0,.1.27.27,0,0,1,.09.12c0,.08.1.12.26.2l.42.2.91.43a.2.2,0,0,1,.11,0,.29.29,0,0,1,.16.15l0,0h0a.28.28,0,0,1,.08.11.29.29,0,0,1,.13.14.36.36,0,0,0,.29.22.3.3,0,0,1,.21.15.71.71,0,0,1,.21.11,2,2,0,0,0,.79.25l.09,0a.31.31,0,0,1,.21.16s0,0,0,0l.14.06a5.74,5.74,0,0,0,1.73.85.3.3,0,0,1,.17.12.28.28,0,0,1,.25,0,.27.27,0,0,1,.08.07l.1,0,.1,0a.39.39,0,0,1,.08.1h.06a.27.27,0,0,1,.19.14l.71.16.37.09a.34.34,0,0,1,.17.11,1.16,1.16,0,0,0,.34.33.32.32,0,0,1,.11.12,1.16,1.16,0,0,0,.95.75.28.28,0,0,1,.21.12l.11.05a.25.25,0,0,1,.08.1.29.29,0,0,1,.17.17s0,.06,0,.09l.11,0a.38.38,0,0,1,.15.09c.06.07.16.09.31.14l.22.07a1.46,1.46,0,0,1,1.14,1.62v.1a.62.62,0,0,0,0,.15.22.22,0,0,0,0,.06.27.27,0,0,1,.26,0l.08.09a.29.29,0,0,1,.13,0,.18.18,0,0,1,.07,0,3.17,3.17,0,0,0,.7.47l.07,0,.15.16a3.71,3.71,0,0,0,.57.5.29.29,0,0,1,.28.12l0,0a.3.3,0,0,1,.13.12.32.32,0,0,1,0,.09.87.87,0,0,0,.45.3.36.36,0,0,1,.24.09l0,0a.41.41,0,0,1,.11.07,1.25,1.25,0,0,0,1.75,0l.11,0a.23.23,0,0,0,.18-.19.29.29,0,0,1,.12-.15.51.51,0,0,0,.15-.25l0-.09a.52.52,0,0,0,.07-.74l0-.06a.49.49,0,0,1,0-.12V78a.29.29,0,0,1,.24-.29,1.11,1.11,0,0,1,.32,0l.13,0s0,0,0,0a.18.18,0,0,1,.05-.07l.11-.06a.38.38,0,0,1,.16-.12.28.28,0,0,1,.1-.21.31.31,0,0,1,.15-.08c.11-.19.07-.23-.14-.48s-.29-.33-.26-.53.18-.29.4-.44l.12-.09.08-.06a.89.89,0,0,0,.51-.5,1,1,0,0,0,.2-.31l.06,0a.25.25,0,0,1,0-.07.22.22,0,0,1,.12-.09l0-.06.06,0a.22.22,0,0,1,0-.08.16.16,0,0,1,.09-.07.29.29,0,0,1,.14-.15.28.28,0,0,1,.2,0h0a.56.56,0,0,1,0-.12.28.28,0,0,1,.29-.14.17.17,0,0,0,.05,0h0s0,0-.09-.15a.16.16,0,0,1,0-.07l-.15-.32a.29.29,0,0,1,.09-.36v0a.34.34,0,0,1,.13-.23.54.54,0,0,1,0-.11.28.28,0,0,1,.08-.15l.08-.08h0a.74.74,0,0,1-.21,0,.89.89,0,0,0-.2.06,1.12,1.12,0,0,1-1.06-.13.24.24,0,0,1-.08-.06.78.78,0,0,1-.2-.64.39.39,0,0,0,0-.12.33.33,0,0,0-.18,0l-.1,0a.29.29,0,0,1-.33-.07l0,0-.11,0a.28.28,0,0,1-.12-.08l-.06-.08a1.27,1.27,0,0,0-.36-.34.29.29,0,0,1-.12-.1l-.09,0a.28.28,0,0,1-.11-.23.27.27,0,0,1,.09-.21h0a.69.69,0,0,1,.13-.11l0,0a.36.36,0,0,1-.07-.1,1.09,1.09,0,0,0,0-.14l-.1,0a.3.3,0,0,1-.19-.28s0,0,0-.06a.33.33,0,0,1-.1-.14.19.19,0,0,1,0-.15,1,1,0,0,1,.41-.75,1,1,0,0,1,.8-.09l.23.08.09,0a.57.57,0,0,1,.13.08l.07.09c.06.06.11.12.16.16h0a.3.3,0,0,1,.25.23.44.44,0,0,1,.08.11l0,0h0s.1-.07.11-.19a.29.29,0,0,1,.09-.16l.51-.53.07-.14A1.46,1.46,0,0,0,49,67.9h0a.36.36,0,0,1-.17-.07.3.3,0,0,1-.1-.2l0,0a.39.39,0,0,1-.08-.1,1.13,1.13,0,0,1,0-1.07v0a.32.32,0,0,1,.14-.24h0a.7.7,0,0,1,.06-.09l0,0a.32.32,0,0,1,.15-.29l.07,0a1.71,1.71,0,0,0,.06-.26.3.3,0,0,1,.13-.2h0a.26.26,0,0,1,.1-.14.1.1,0,0,1,0,0l.08-.1.07,0,0,0,0,0,0,0a.31.31,0,0,1,.09-.11h0l0-.06a.24.24,0,0,1,.09-.08.17.17,0,0,1,0-.1.33.33,0,0,1,.11-.15.31.31,0,0,1,.07-.2l.05,0h0l.09,0a.31.31,0,0,1,.22-.12.25.25,0,0,1,0-.13s.06-.08.06-.11a.29.29,0,0,1-.15-.14.34.34,0,0,1,0-.26.41.41,0,0,0-.13-.23.24.24,0,0,1-.07-.12l-.07-.19a1.94,1.94,0,0,1-.08-1.54.3.3,0,0,1,.12-.13s0,0,0-.06c0-.56,0-1.1,0-1.64v-.7a.32.32,0,0,1,.08-.2.27.27,0,0,1,.18-.11c.06,0,.12,0,.15-.17a.28.28,0,0,1,.14-.18.25.25,0,0,1,.17,0,.27.27,0,0,1,.07-.08.35.35,0,0,1,.14-.06.29.29,0,0,1,.16-.15h0a.49.49,0,0,1,0-.11,1.59,1.59,0,0,1,.14-.35.28.28,0,0,1-.12-.14.33.33,0,0,1,0-.24,10.25,10.25,0,0,0-1-2.1.47.47,0,0,1-.05-.1,3,3,0,0,0-.49-.82.16.16,0,0,1,0-.07l0-.06h0a.29.29,0,0,1-.19-.26.2.2,0,0,1,0-.11.31.31,0,0,1-.13-.06.27.27,0,0,1-.11-.25.34.34,0,0,1-.16-.21.42.42,0,0,1,0-.16.77.77,0,0,0-.1-.12.24.24,0,0,1-.09-.15,1.4,1.4,0,0,0-.32-.53.24.24,0,0,1-.06-.11,1.4,1.4,0,0,0-.33-.54.18.18,0,0,1-.06-.09.25.25,0,0,0,0-.09.17.17,0,0,1-.18-.06s-.08,0-.26,0h-.21a.32.32,0,0,1-.14,0l-.08-.05a.36.36,0,0,0-.51,0,.19.19,0,0,1-.1.05.23.23,0,0,1-.2,0c-.21-.07-.29-.31-.38-.57h0l-.11.06-.22.11a1.19,1.19,0,0,1-.94,0l-.1-.07,0,0a.32.32,0,0,1-.17-.09.32.32,0,0,1-.09-.16.31.31,0,0,1-.53-.28v-.12c0-.05,0-.09,0-.14a.77.77,0,0,1,0-.26v0a.27.27,0,0,1,.12-.22.33.33,0,0,1,.14-.31h0c0-.11,0-.21,0-.31a4.28,4.28,0,0,1,.05-.6,2,2,0,0,0-.75.65.31.31,0,0,1-.07.09.53.53,0,0,1-.06.1l0,0,0,0,0,0a.31.31,0,0,1-.07.09.3.3,0,0,1-.28.07.37.37,0,0,0-.11.11.27.27,0,0,1-.12.09.39.39,0,0,1-.3,0c-.24-.13-.33-.51-.53-1.57-.06-.28-.13-.66-.19-.88-.08,0-.09,0-.1.05a.3.3,0,0,1-.16.17h0a.31.31,0,0,1-.13,0H38.05a.32.32,0,0,1-.22-.1.65.65,0,0,1-.15-.6l-.08-.06-.17-.2a.28.28,0,0,1-.06-.25v0a.34.34,0,0,1-.12-.29c0-.09,0-.14-.09-.21l-.09-.07a.31.31,0,0,1-.25-.2s0,0,0-.06a.65.65,0,0,0-.37,0h-.06a.36.36,0,0,1-.2-.06.16.16,0,0,1-.08-.06s0,0-.17,0h-.13a.28.28,0,0,1-.21-.1c0-.05-.09-.06-.26-.06a1,1,0,0,1-.41-.06,1.06,1.06,0,0,0-.31,0c-.22,0-.52.05-.65-.22a.58.58,0,0,1,.24-.71,1,1,0,0,0,.15-.16.26.26,0,0,1,.07-.16c.11-.13.11-.22,0-.37a.31.31,0,0,1-.06-.21v0a.37.37,0,0,1-.11-.18c0-.11-.1-.19-.25-.31l0,0a.31.31,0,0,1-.09-.14c-.06-.19-.11-.26-.16-.28a.3.3,0,0,1-.26,0,.28.28,0,0,1-.17-.28h0a.3.3,0,0,1-.22-.3S33,41,33,41a.22.22,0,0,1-.13-.24.27.27,0,0,0-.17-.29A1.49,1.49,0,0,1,32,39.6L32,39.35a1,1,0,0,0-.17-.38.49.49,0,0,1-.06-.17.27.27,0,0,0-.08-.09.48.48,0,0,1-.16-.6.2.2,0,0,1,.08-.12l-.07-.09a1.1,1.1,0,0,0-.46-.29l-.09,0-.11-.08a1.14,1.14,0,0,1-.34-1.07,1,1,0,0,1,.82-.61h.12c0-.17,0-.18,0-.19a.44.44,0,0,1-.08-.11,1.58,1.58,0,0,1-.2-.89.28.28,0,0,1,0-.28.29.29,0,0,1,.14-.13.19.19,0,0,1,0-.07.36.36,0,0,1,.11-.16.29.29,0,0,1,.09-.21l.06,0a.3.3,0,0,1,.12-.13h0a.34.34,0,0,1,.18-.19.36.36,0,0,1,.14,0l1.3-.7a.33.33,0,0,1,.17,0c.12,0,.28,0,.32-.25v-.08c0-.26.07-.43,0-.56a.47.47,0,0,1-.05-.1.48.48,0,0,0-.2-.29.27.27,0,0,1-.07-.08.81.81,0,0,1,0-.79l.05-.08.14-.15a1,1,0,0,0,.15-.17.27.27,0,0,1,0-.26,4.78,4.78,0,0,1,.32-.23c.05,0,.08-.06.15-.18a1.3,1.3,0,0,1,.18-.25h0v-.08a.27.27,0,0,1,.1-.18v-.17c0-.34.09-.68.13-1l.07-.52a.21.21,0,0,1,0-.12.77.77,0,0,1,.68-.37.84.84,0,0,0,.73-.38.38.38,0,0,1,0-.1.3.3,0,0,1,.21-.2l0-.05h0l.06,0a.21.21,0,0,1,0-.06l0,0h0l0,0a.1.1,0,0,1,0-.05v0l0,0a.22.22,0,0,1,.11-.05.26.26,0,0,1,.14-.11,2.44,2.44,0,0,0,.79-.43l.07,0,.15-.05.05,0a.23.23,0,0,1,.28-.13l0,0,.08,0a3.24,3.24,0,0,0,.41-.73c.3-.64.65-1.36,1.22-1.17a.2.2,0,0,0,.12,0l0-.08a.28.28,0,0,1,.32-.14l.06,0h.26c.26,0,.36,0,.44-.13a.3.3,0,0,1,.25-.13h.91a.28.28,0,0,1,.09-.1.24.24,0,0,1,.26,0c.07,0,.1,0,.26-.18l.26-.33.1-.14a.28.28,0,0,1,.23-.12h1a.34.34,0,0,1,.16-.13l.11,0h.12a.35.35,0,0,1,.14,0h0a.31.31,0,0,1,.14.18s.06.08.11.14a.92.92,0,0,1,.19.2l.11.2,0,0,0,0a.3.3,0,0,1,.21,0l.22,0a.31.31,0,0,1,.13.06c.09.07.19.09.24.05s.07-.12,0-.22a.18.18,0,0,1-.06-.09,1.36,1.36,0,0,0-.15-.28.32.32,0,0,1-.14,0,.28.28,0,0,1-.17-.2.1.1,0,0,1,0,0,.28.28,0,0,1-.09-.28.55.55,0,0,0-.22-.24.27.27,0,0,1-.07-.08c-.25-.34-.29-.4-.57-.34a.86.86,0,0,1-.3.42.36.36,0,0,1-.23.11h0c-.23,0-.3-.17-.38-.47a.42.42,0,0,1-.27-.17.72.72,0,0,1,0-.64.34.34,0,0,1,.06-.12.4.4,0,0,1,.33-.12c.19.05.28.22.36.49h.12a.64.64,0,0,0,.06-.14.27.27,0,0,1,.11-.18.43.43,0,0,0,.16-.24.25.25,0,0,1,.1-.15.41.41,0,0,0,.16-.24.23.23,0,0,1,.1-.15.51.51,0,0,0,.16-.26.31.31,0,0,1,.12-.16.25.25,0,0,0,.09-.12.24.24,0,0,1,0-.12.38.38,0,0,1,.14-.22.29.29,0,0,1,0-.13l0,0s0,0,.06-.05l0,0,0,0a.27.27,0,0,1,.07-.08.34.34,0,0,1,.07-.22l-.08,0a.31.31,0,0,1-.25,0,.29.29,0,0,1-.14-.17l0,0,0,0,0-.06-.08-.06h0l0-.06-.06,0,0,0,0,0a.31.31,0,0,1-.06-.13,1.36,1.36,0,0,0-.63-.15l-.28,0a.3.3,0,0,1-.21-.15h0a.35.35,0,0,1-.14-.06l-.14-.12a1,1,0,0,0-.2-.17.29.29,0,0,1-.29-.1.37.37,0,0,1,0-.11h0c-.35-.28-.37-.26-.58-.12a.79.79,0,0,1-.21.1l-.1.05a.3.3,0,0,1-.31.17,1.92,1.92,0,0,0-.9.13.26.26,0,0,1-.15,0,.34.34,0,0,1-.2-.13.36.36,0,0,1,0-.09l0,0a1.71,1.71,0,0,0-.89-.44L40,15.28c-.12-.1-.15-.07-.21,0l-.08.05-.05.07-.14.13c-.31.35-.36.37-1,.61a1.15,1.15,0,0,0-.23.1,1.22,1.22,0,0,1-1.12.12,2.54,2.54,0,0,0-1.61,0l-.45.05a.32.32,0,0,1-.27-.11.42.42,0,0,0-.21-.15.33.33,0,0,1-.17,0,.33.33,0,0,1-.13-.13h0a.63.63,0,0,1-.18-.86l0-.06a.31.31,0,0,1-.09-.11.39.39,0,0,1,0-.18l0-.11a.43.43,0,0,0,0-.11l0,0c-.13,0-.16-.16-.14-.3s0-.24,0-.27a.36.36,0,0,1-.07-.1h0a.49.49,0,0,1-.16.05h-.61a.34.34,0,0,1-.17-.05,1,1,0,0,1-.39-1.07l0,0a.29.29,0,0,1,0-.27,1.13,1.13,0,0,0-.15-.27c-.13,0-.23-.1-.24-.22a.08.08,0,0,1,0,0l0-.06a.23.23,0,0,1-.06-.12.34.34,0,0,0-.15-.23,1.73,1.73,0,0,1-1-.46,1.83,1.83,0,0,0-.4-.28.26.26,0,0,1-.1-.07s-.06,0-.17,0a.84.84,0,0,1-.42-.08l-.1-.06a.54.54,0,0,1-.31-.53,1.53,1.53,0,0,0-.3-.83,3.36,3.36,0,0,1-.31-.63s-.06-.07-.19-.1a.24.24,0,0,1-.11-.06,3,3,0,0,1-.26-.24,1.8,1.8,0,0,0-.41-.33.27.27,0,0,1-.17-.06L27.5,7.7h0a.33.33,0,0,1-.15-.24V7.38c0-.06-.06-.07-.28-.06H26.9a.31.31,0,0,1-.18-.07l-.15-.13a.72.72,0,0,0-.29-.2.27.27,0,0,1-.18-.11L26,6.65l-.2-.12-.12.14a.35.35,0,0,1-.07.15.28.28,0,0,1-.22.1A.3.3,0,0,1,25,7a.28.28,0,0,1-.2-.34.48.48,0,0,1,.31-.35l.05,0c.42-.48.63-.45,1.15-.11l.06.06.1.12a1.26,1.26,0,0,1,.47.32l0,0h0a.75.75,0,0,1,.85.46.43.43,0,0,1,.14.13,2.54,2.54,0,0,1,.56.44l.18.17a.74.74,0,0,1,.53.48,3.08,3.08,0,0,0,.26.51,2,2,0,0,1,.38,1.15l.1,0,.15,0a.75.75,0,0,1,.54.16,3,3,0,0,1,.49.34,1.21,1.21,0,0,0,.65.34.81.81,0,0,1,.66.61l.09.12a1.4,1.4,0,0,1,.44.67.44.44,0,0,1,.16.37.39.39,0,0,1-.15.28.35.35,0,0,0,.12.3h.41a.49.49,0,0,1,.38-.08.6.6,0,0,1,.38.31.74.74,0,0,1,.19.62.6.6,0,0,1,.13.52.45.45,0,0,1,.12.21.63.63,0,0,1-.15.53s0,0,0,0a.39.39,0,0,1,.23.16,1,1,0,0,1,.34.2l.27,0a3,3,0,0,1,1.86,0l.07,0c.2.1.36,0,.64-.11l.28-.12c.56-.21.56-.21.79-.46l.11-.11a.43.43,0,0,1,.24-.22.69.69,0,0,1,.86,0,2,2,0,0,1,1.09.56l.09.05a2.68,2.68,0,0,1,.76-.1.74.74,0,0,1,.28-.16l.1-.05a.89.89,0,0,1,1.22.1.49.49,0,0,1,.25.18,1.41,1.41,0,0,1,.4.28l0,0a.57.57,0,0,1,.3.15H45a1.72,1.72,0,0,1,1,.34.28.28,0,0,1,.08.11l0,0a.36.36,0,0,1,.08.09l.07.06.06.07a.35.35,0,0,1,.12.1c.25.05.44.11.54.29a.73.73,0,0,1,0,.61.59.59,0,0,1,0,.08.46.46,0,0,1-.18.29.26.26,0,0,1-.08.13.46.46,0,0,1-.17.27,1,1,0,0,1-.25.39,1,1,0,0,1-.26.39,1,1,0,0,1-.26.4,1.51,1.51,0,0,1-.11.22c.2.06.35.23.59.56a1.08,1.08,0,0,1,.42.54.45.45,0,0,1,.13.15,1.15,1.15,0,0,1,.42.55.75.75,0,0,1,0,1,.74.74,0,0,1-1,0h0a.55.55,0,0,1-.42.11c-.22-.05-.34-.25-.48-.52l-.08-.07L45.07,22a.63.63,0,0,1-.3.06l-.78,0-.11,0c-.09.11-.17.23-.27.34a.9.9,0,0,1-.67.41.57.57,0,0,1-.46.13h-.71a1,1,0,0,1-.85.26h-.2a.76.76,0,0,1-.76.19,3.51,3.51,0,0,0-.5.87,2.28,2.28,0,0,1-.66,1,1.12,1.12,0,0,1-.29.14.72.72,0,0,1-.27.13h0a2.86,2.86,0,0,1-.85.47.43.43,0,0,1-.14.13.1.1,0,0,1,0,.05.36.36,0,0,1-.09.08l-.05.06L37,26.4a.53.53,0,0,1-.17.16,1.42,1.42,0,0,1-1.28.71.21.21,0,0,0-.14,0l-.06.45-.12,1v.06a.75.75,0,0,1-.12.39.54.54,0,0,1-.18.34.74.74,0,0,0-.08.13.92.92,0,0,1-.34.38.53.53,0,0,1-.12.14,1.1,1.1,0,0,1-.3.43.6.6,0,0,1-.08.08.7.7,0,0,0,0,.19,1,1,0,0,1,.34.5,1.22,1.22,0,0,1,.12,1v.07a.83.83,0,0,1-.85.76h0l-1.28.7a.33.33,0,0,1-.15.14.22.22,0,0,1,0,.08l0,0a.42.42,0,0,1-.12.22.54.54,0,0,1-.15.3,1,1,0,0,0,.13.5A.74.74,0,0,1,32,36,.19.19,0,0,1,32,36a.59.59,0,0,1-.48.36c-.26.06-.41.14-.44.23s0,.23.19.45h0a1.79,1.79,0,0,1,.68.46.72.72,0,0,1,.22.53.6.6,0,0,1-.1.25.69.69,0,0,1,.23.37,1.78,1.78,0,0,1,.21.5c0,.06.05.13.07.2a1,1,0,0,0,.4.55.86.86,0,0,1,.49.68.67.67,0,0,1,.12.26,1,1,0,0,1,.18.17.86.86,0,0,1,.61.62,1.27,1.27,0,0,1,.4.51.53.53,0,0,1,.15.38,1.33,1.33,0,0,1-.24,1.3,1.05,1.05,0,0,1,.43,0,.56.56,0,0,0,.2,0,.9.9,0,0,1,.6.16.79.79,0,0,1,.52.13.92.92,0,0,1,.91.34l.16.12a.78.78,0,0,1,.34.61.55.55,0,0,1,.11.39l0,.05a.5.5,0,0,1,.25.6h2.8a.76.76,0,0,1,.43-.24l.12,0h0a.33.33,0,0,1,.24,0c.25.09.32.38.51,1.39.06.29.14.72.21,1l.13,0a.63.63,0,0,1,.13-.11A.51.51,0,0,1,43,48.1a2.42,2.42,0,0,1,1-.82.59.59,0,0,1,.68-.05.45.45,0,0,1,.13.54,3,3,0,0,0-.07.67,4,4,0,0,1,0,.49.4.4,0,0,1-.14.27.44.44,0,0,1-.14.28h0l.18,0a.41.41,0,0,1,.28.27l0,.07a.63.63,0,0,1,.12.1.63.63,0,0,0,.44,0l.15-.08a1.23,1.23,0,0,1,.48-.18h.14c.21,0,.27.23.34.46l0,.07a.88.88,0,0,1,.89.11h.08a.91.91,0,0,1,.65.13.56.56,0,0,1,.42.38,1.85,1.85,0,0,1,.4.66,1.82,1.82,0,0,1,.39.65.92.92,0,0,1,.24.38.53.53,0,0,1,.15.3.71.71,0,0,1,.24.37.57.57,0,0,1,.16.29,3.38,3.38,0,0,1,.56,1,10.14,10.14,0,0,1,1.12,2.29.5.5,0,0,1,.18.31.54.54,0,0,1-.11.45.78.78,0,0,0-.11.26,1.39,1.39,0,0,1-.22.44.43.43,0,0,1-.35.25l-.06,0a.32.32,0,0,1-.2.08.72.72,0,0,1-.3.3v.5c0,.54,0,1.08,0,1.62a.61.61,0,0,1-.18.53,1.49,1.49,0,0,0,.13,1l0,.13a1.07,1.07,0,0,1,.26.58.68.68,0,0,1,0,.85.55.55,0,0,1-.32.36.46.46,0,0,1-.07.07.27.27,0,0,1-.07.18l-.06.06a.47.47,0,0,1-.08.2.38.38,0,0,1-.09.09.39.39,0,0,1-.12.14l0,0a.35.35,0,0,1-.06.09l-.08,0,0,0-.12.09,0,0a.28.28,0,0,1-.08.06v0a.47.47,0,0,1-.1.1.87.87,0,0,1-.23.47.47.47,0,0,1-.18.32.44.44,0,0,1-.08.11l-.06,0,0,0c-.09.13-.09.25,0,.51a.61.61,0,0,1,.12.15h0c.57.34.78.56.41,1.19l0,.06-.47.48a.86.86,0,0,1-.38.51.56.56,0,0,1-.46.11.63.63,0,0,1-.35-.28.58.58,0,0,1-.17-.18,1.85,1.85,0,0,1-.32-.3l-.06,0-.16-.06a.56.56,0,0,0-.34,0,.33.33,0,0,0-.11.17.5.5,0,0,1,.1.22.91.91,0,0,1,.25.39.57.57,0,0,1,.17.41.48.48,0,0,1-.11.28,1.83,1.83,0,0,1,.36.38h0l.23.08.12,0a.74.74,0,0,1,.58.28.68.68,0,0,1,.12.57s0,0,.05.13a.56.56,0,0,0,.5,0,1,1,0,0,1,.42-.09l.12,0a.61.61,0,0,1,.67.24.68.68,0,0,1-.18.78.61.61,0,0,1-.13.3.52.52,0,0,1-.06.16l.05.1a.73.73,0,0,1,.2.58.68.68,0,0,1-.33.48.42.42,0,0,1-.12.08.88.88,0,0,1-.35.24.45.45,0,0,1-.13.11l-.06.07-.07.06-.06.07a.18.18,0,0,1-.07,0,.31.31,0,0,1-.08.11l0,0a.56.56,0,0,1-.14.16,1.46,1.46,0,0,1-.72.71l0,0-.14.1-.07,0,0,.06a.88.88,0,0,1,.14,1.28.29.29,0,0,1-.09.1h0a.51.51,0,0,1-.3.31l-.09.08-.12.06a.62.62,0,0,1-.52.17v.16a1,1,0,0,1-.13,1.28,1.18,1.18,0,0,1-.28.43.83.83,0,0,1-.51.48A2.27,2.27,0,0,1,44.72,81.12Zm2.62-3.53ZM44.1,48.86ZM41.2,46.6h0Zm-40-16.3Zm.64-.18Z"/><g id="qhJ4BT"><path class="cls-1" d="M9.8,26.94a.54.54,0,0,1-.33-.13H9.24a1,1,0,0,1-.84-.37,1.35,1.35,0,0,0-.31-.32.78.78,0,0,1-.3-.48.69.69,0,0,0,0-.13,1.15,1.15,0,0,1-.13-.63,1.53,1.53,0,0,1-.29-.24,1.94,1.94,0,0,1-.3.13.58.58,0,0,1-.73-.26s0,0-.11-.06a1.37,1.37,0,0,1-.71-.39L5.4,24h0l0,0-.12.14a2.28,2.28,0,0,1-.37.4.77.77,0,0,1-1,0,.49.49,0,0,1-.14-.66,2.11,2.11,0,0,1,.2-.29l-.1-.06a.56.56,0,0,1-.17-.42v-.07a.69.69,0,0,1,.14-.83.63.63,0,0,1,.75-.1h0l0,0a.6.6,0,0,1,.28-.23,1.55,1.55,0,0,1-.12-.86.4.4,0,0,1-.09-.4l0-.07a.93.93,0,0,1-.08-.22.52.52,0,0,1-.26-.27.45.45,0,0,1,0-.4A.45.45,0,0,1,5,19.48a.32.32,0,0,0,.24-.09.28.28,0,0,1,.05-.11.51.51,0,0,1,.46-.34.27.27,0,0,1,.12,0l0-.12.12-.41a12.36,12.36,0,0,1,.57-1.61,1,1,0,0,1-.15.14.8.8,0,0,1-.94,0l0,0-.21.18a.47.47,0,0,1-.11.37.42.42,0,0,1-.6.06l-.31-.19a2.27,2.27,0,0,1-.84-.72.85.85,0,0,0-.55-.38A1.92,1.92,0,0,1,2.35,16L2.15,16a.35.35,0,0,1-.21-.24.8.8,0,0,0-.23-.32l-.08-.09a.36.36,0,0,1,0-.5A.36.36,0,0,1,2,14.71a.68.68,0,0,1,.27.13s0,0,.11,0a.33.33,0,0,0,.17-.41A.35.35,0,0,1,2.65,14s.05-.06,0-.23-.11-.25-.17-.37l-.17-.36a.66.66,0,0,1,0-.67A.43.43,0,0,1,2.54,12v0a1.43,1.43,0,0,1,0-.22,3.1,3.1,0,0,1-.46-.63.85.85,0,0,1,0-1,1,1,0,0,1,1-.4.66.66,0,0,0,.19,0h.11v0a1.89,1.89,0,0,0,.1-.36l0-.11a2.21,2.21,0,0,1,.21-.55.64.64,0,0,1,.11-.16,1.21,1.21,0,0,1-.05-.18A1,1,0,0,0,3.71,8a.46.46,0,0,1-.06-.42A.43.43,0,0,1,4,7.34s0,0,0-.06a1.21,1.21,0,0,1,.29-.44.76.76,0,0,0,.08-.11.37.37,0,0,1,.35-.15l0,0a.46.46,0,0,1,.07-.07A2.87,2.87,0,0,0,5.23,6a1,1,0,0,1,.25-.29s0,0,0-.06a2.62,2.62,0,0,0,0-.28c0-.12,0-.25,0-.37a.55.55,0,0,1,.11-.41.62.62,0,0,1,0-.72A.69.69,0,0,1,5.24,3a.78.78,0,0,1,.7-.53,1.43,1.43,0,0,0,.65-.26,1.59,1.59,0,0,1,.56-.34.9.9,0,0,1,.45,0,.13.13,0,0,0,.16-.06.91.91,0,0,1,.72-.29l.34,0H9A.29.29,0,0,0,9.3,1.3a1.44,1.44,0,0,1,.19-.22A.55.55,0,0,1,10,.91l.07,0a.51.51,0,0,1,.16-.09.64.64,0,0,1,.15-.39l.06-.09a.35.35,0,0,1,.16-.31.38.38,0,0,1,.41,0,1.19,1.19,0,0,1,.4.41l0,.05c.11.15.12.16.15.16A.36.36,0,0,1,12,.94H12a.64.64,0,0,1,.48.24,2.63,2.63,0,0,0,.76.59c.24.14.45.26.65.39h.18a.85.85,0,0,1,.7.34l.1,0a1.33,1.33,0,0,1,.33-.08.5.5,0,0,1,.57.48c0,.15,0,.15.15.19l.06,0c.57.15.66.27.68.84,0,.35.08.43.43.45h.31a.81.81,0,0,1,.35,0,3,3,0,0,0,.32.12,2.22,2.22,0,0,1,.66.29,1.06,1.06,0,0,1,.31,0,.43.43,0,0,1,.4-.12.72.72,0,0,1,.31.11.58.58,0,0,0,.48.07c0-.05,0-.09,0-.14a.59.59,0,0,1,.11-.43.41.41,0,0,1,.28-.13l.06-.07A.47.47,0,0,1,21.08,4a.49.49,0,0,1,.34.18.11.11,0,0,0,.13,0,.46.46,0,0,1,.43.19.4.4,0,0,1,.42.21,3.91,3.91,0,0,0,.3.41,2.88,2.88,0,0,0,.22.27.53.53,0,0,0,.4.21,2.9,2.9,0,0,1,.65.14.89.89,0,0,1,.38.25.6.6,0,0,0,.24.13l.25.09.39.16a.39.39,0,0,1,.27.36.41.41,0,0,1-.25.39.92.92,0,0,1-.54.13,1.43,1.43,0,0,1,.15.44A.36.36,0,0,0,25,7.8a1.12,1.12,0,0,0,.18.1.74.74,0,0,1,.44.86.35.35,0,0,1-.1.24c-.07.06-.07.11,0,.34a3.78,3.78,0,0,0,.15.5l0,.09a.38.38,0,0,1,0,.39.35.35,0,0,1-.35.14,1.19,1.19,0,0,1-.39,0,8.13,8.13,0,0,1-.29,1,8.94,8.94,0,0,1-2.35,3.4,20.41,20.41,0,0,1-2.49,2,4.49,4.49,0,0,1-1.16.49l-.22.07-.91.28c-.6.19-1.22.37-1.8.62a4,4,0,0,0-1.47.93,1.86,1.86,0,0,0-.51,1,.54.54,0,0,1-.12.33.52.52,0,0,1-.47.15.43.43,0,0,1-.22-.13c0,.09-.06.18-.08.26l-.06.18a.94.94,0,0,0,0,.37.52.52,0,0,1-.25.56s-.06,0-.06.18a.48.48,0,0,1-.28.45,1.31,1.31,0,0,1-.16.58l-.11.22c-.05.1-.11.21-.16.32s0,.22,0,.25a.41.41,0,0,1,.09.44,1,1,0,0,0-.07.15,1.05,1.05,0,0,1-.72.77.88.88,0,0,0-.31.17l-.05,0s0,0,0,.06a.54.54,0,0,1,0,.5.49.49,0,0,1-.36.23.78.78,0,0,1-.16.33A.56.56,0,0,1,9.8,26.94Zm-.41-.72a.72.72,0,0,1,.39.09.26.26,0,0,0,0-.11.47.47,0,0,1,.33-.38.61.61,0,0,1,.23-.75,1.53,1.53,0,0,1,.52-.27c.17,0,.22-.15.33-.41l0-.06a.79.79,0,0,1,0-.82c0-.11.11-.23.17-.34l.1-.21a.64.64,0,0,0,.1-.38.39.39,0,0,1,.28-.46.76.76,0,0,1,.32-.6,1.34,1.34,0,0,1,.06-.61l.06-.19a1.74,1.74,0,0,0,.11-.57.42.42,0,0,1,.11-.31.41.41,0,0,1,.33-.1.58.58,0,0,1,.38.16,2.52,2.52,0,0,1,.6-1,4.61,4.61,0,0,1,1.67-1.07,19.5,19.5,0,0,1,1.86-.64l.9-.28.23-.07a3.9,3.9,0,0,0,1-.42,19.13,19.13,0,0,0,2.41-1.91,8.29,8.29,0,0,0,2.21-3.17,8.9,8.9,0,0,0,.34-1.35.31.31,0,0,1,.25-.24.28.28,0,0,1,.3.16s0,.05.08,0S25,9.65,25,9.52a1,1,0,0,1,.1-.88c0-.15,0-.17-.1-.2a1.75,1.75,0,0,1-.27-.16,1,1,0,0,1-.41-.59.56.56,0,0,0-.46-.54.41.41,0,0,1-.31-.48.38.38,0,0,1,.15-.25.36.36,0,0,1,.33,0l.08,0a1.14,1.14,0,0,1-.17-.15.34.34,0,0,0-.13-.07,1.72,1.72,0,0,0-.5-.11,1.13,1.13,0,0,1-.77-.39c-.11-.12-.19-.22-.27-.32L22,5a.4.4,0,0,1-.25-.05.41.41,0,0,1-.15-.14.71.71,0,0,1-.5-.17.46.46,0,0,1-.21.14,1.64,1.64,0,0,0,0,.22.4.4,0,0,1-.33.46,1.23,1.23,0,0,1-1.07-.12.43.43,0,0,1-.43.11h-.16a.53.53,0,0,1-.45-.09,1.52,1.52,0,0,0-.5-.22L17.54,5h-.45a.92.92,0,0,1-1-1,1.38,1.38,0,0,0,0-.25s-.12,0-.21,0l-.09,0A.7.7,0,0,1,15.22,3a.53.53,0,0,0-.12,0,.6.6,0,0,1-.19.06c-.37.09-.52-.07-.59-.22s-.05-.09-.28-.11H14a.69.69,0,0,1-.38-.11L13,2.31a3.23,3.23,0,0,1-1-.76.73.73,0,0,1-.57-.28A.8.8,0,0,1,11,.89L10.92.82l0-.07,0,.05,0,.06a.48.48,0,0,1-.11.39.34.34,0,0,1-.2.13h0a.57.57,0,0,1-.14.32.28.28,0,0,1-.37.05.41.41,0,0,1-.15-.18l-.05.06A.83.83,0,0,1,9.06,2l-.2,0a2.54,2.54,0,0,1-.39,0,.38.38,0,0,0-.27.1.72.72,0,0,1-.68.26.48.48,0,0,0-.16,0A1.27,1.27,0,0,0,7,2.6,1.94,1.94,0,0,1,6.05,3c-.22,0-.22.05-.25.13s0,.14.09.24a.56.56,0,0,1,.17.81s0,0,0,.12a.94.94,0,0,1,.12.22.34.34,0,0,1,0,.34A.3.3,0,0,1,6,5c0,.11,0,.22,0,.33s0,.2,0,.3a.63.63,0,0,1-.21.53.37.37,0,0,0-.11.13,3.21,3.21,0,0,1-.56.66.62.62,0,0,1-.42.23l0,0a.92.92,0,0,0-.17.25.62.62,0,0,1-.27.37c0,.09.07.18.1.27a1,1,0,0,0,.15.34.3.3,0,0,1,0,.36.32.32,0,0,1-.3.12,1.94,1.94,0,0,0-.14.37l0,.1A3.1,3.1,0,0,1,4,9.87a.52.52,0,0,1-.44.37H3.37a1.25,1.25,0,0,1-.34,0,.44.44,0,0,0-.45.18c-.05.06-.07.11.06.36a2.69,2.69,0,0,0,.39.53.49.49,0,0,1,.11.54.56.56,0,0,0,0,.07.59.59,0,0,1-.24.49.35.35,0,0,1-.1.26.19.19,0,0,0,0,.12c.05.12.11.23.16.35l.18.38a.83.83,0,0,1,0,.75.89.89,0,0,1-.43,1,1,1,0,0,1-.28.13v0l.14.08a1.64,1.64,0,0,0,.41.16,1.44,1.44,0,0,1,.92.64,1.71,1.71,0,0,0,.65.53s0,0,0-.07a.31.31,0,0,1,.35-.2l.06,0a1.18,1.18,0,0,0,.39-.5,2.4,2.4,0,0,1,.11-.23l0-.08a.34.34,0,0,1,.29-.16.31.31,0,0,1,.26.22.51.51,0,0,1,0,.28.4.4,0,0,1,.07.25.3.3,0,0,1,0,.1h0a.29.29,0,0,0,.1-.23,2.41,2.41,0,0,0,0-.59l0-.21a1.46,1.46,0,0,1,0-.48.3.3,0,0,1,.21-.25.28.28,0,0,1,.31.1.83.83,0,0,1,.19.62.68.68,0,0,0,.25.7.53.53,0,0,1,.17.68,9.42,9.42,0,0,0-.65,1.78L6.51,19a1.12,1.12,0,0,1-.45.63.29.29,0,0,1-.27,0,.82.82,0,0,1-.43.33.66.66,0,0,1-.27.06.36.36,0,0,1,0,.19l0,.08a.7.7,0,0,1,.09.36.57.57,0,0,1,.09.44.86.86,0,0,0,.12.64.4.4,0,0,1-.19.61l-.07,0a.31.31,0,0,0-.13.06c-.24.35-.39.36-.74.22l-.13,0s-.07.07,0,.19a.9.9,0,0,1,.06.25.52.52,0,0,1,.35,0,.27.27,0,0,1,.18.19.3.3,0,0,1,0,.26l-.29.37-.17.22a.16.16,0,0,0,.22,0,2,2,0,0,0,.28-.3,1,1,0,0,1,.13-.16.56.56,0,0,1,.76-.16.6.6,0,0,1,.23.15.89.89,0,0,0,.43.23.73.73,0,0,1,.48.34l0,0a.85.85,0,0,0,.22-.09.58.58,0,0,1,.69.14.54.54,0,0,0,.19.14.39.39,0,0,1,.26.2.39.39,0,0,1,0,.3c0,.09,0,.19.06.37a.76.76,0,0,1,.08.21.62.62,0,0,0,.07.16,2.13,2.13,0,0,1,.45.45c.08.11.17.14.37.14h.15ZM13,20.11h0Zm-7.2-3.5.12.14,0-.05-.14-.11Zm-.87.05ZM3.1,14.39h0Zm-.74-2.08ZM3.51,9.65h0ZM4.57,7.14ZM19.4,5.31ZM19,5ZM5.67,4.77h0Z"/></g><path class="cls-1" d="M37.16,49.15A15.69,15.69,0,0,1,31,43.27a16.29,16.29,0,0,1-2.22-8.46,16.24,16.24,0,0,1,2.24-8.47,15.91,15.91,0,0,1,6.16-5.88A18,18,0,0,1,46,18.34a18.16,18.16,0,0,1,7.18,1.37,14.51,14.51,0,0,1,5.49,4L54.8,27.3a11.22,11.22,0,0,0-8.56-3.75A12,12,0,0,0,40.34,25a10.39,10.39,0,0,0-4.07,4,11.42,11.42,0,0,0-1.46,5.81,11.48,11.48,0,0,0,1.46,5.81,10.37,10.37,0,0,0,4.07,4,12,12,0,0,0,5.9,1.44,11.13,11.13,0,0,0,8.56-3.8l3.84,3.66a14.5,14.5,0,0,1-5.51,4,18.35,18.35,0,0,1-7.21,1.38A18,18,0,0,1,37.16,49.15Z"/><path class="cls-1" d="M67.56,47.55q-3.7-3.73-3.7-10.68V18.79h6V36.64q0,9.42,8.14,9.42t8.1-9.42V18.79h5.86V36.87q0,6.95-3.69,10.68T77.91,51.28C73.48,51.28,70,50,67.56,47.55Z"/><path class="cls-1" d="M100.23,18.79h6v32h-6Z"/><path class="cls-1" d="M172.93,43.41h-16l-3.16,7.41h-6.13l14.41-32h5.86l14.46,32h-6.22Zm-2-4.67-6-14-6,14Z"/><path class="cls-1" d="M207.39,50.82l-6.55-9.38a11.87,11.87,0,0,1-1.23.05h-7.23v9.33h-5.95v-32h13.18a17.66,17.66,0,0,1,7.25,1.38,10.43,10.43,0,0,1,4.73,3.93,11,11,0,0,1,1.65,6.08,10.89,10.89,0,0,1-1.76,6.23,10.48,10.48,0,0,1-5.06,3.89l7.37,10.52Zm-2.16-25.35c-1.34-1.1-3.31-1.64-5.9-1.64h-7V36.59h7a9.06,9.06,0,0,0,5.9-1.67,5.79,5.79,0,0,0,2-4.74A5.72,5.72,0,0,0,205.23,25.47Z"/><path class="cls-1" d="M58.31,65.09V56.74c0-.16.08-.23.24-.23h3.37a2.15,2.15,0,0,1,1.57.55,2.09,2.09,0,0,1,.57,1.57V63.2a2,2,0,0,1-2.14,2.12H58.55A.21.21,0,0,1,58.31,65.09Zm1.49-.93h1.93a.89.89,0,0,0,1-1V58.69a.89.89,0,0,0-1-1H59.8c-.1,0-.15,0-.15.14V64A.13.13,0,0,0,59.8,64.16Z"/><path class="cls-1" d="M70.74,65.32h-3a2.08,2.08,0,0,1-1.57-.56,2.13,2.13,0,0,1-.56-1.56V60.45a2.11,2.11,0,0,1,.56-1.56,2.08,2.08,0,0,1,1.57-.56H68.9A1.95,1.95,0,0,1,71,60.45V62.2c0,.16-.08.24-.25.24H67.12c-.1,0-.15.05-.15.14v.59a.88.88,0,0,0,1,1h2.77c.16,0,.24.08.24.25v.68C71,65.25,70.9,65.32,70.74,65.32Zm-3.62-3.81h2.45a.13.13,0,0,0,.14-.14V60.5a1.12,1.12,0,0,0-.23-.77,1.08,1.08,0,0,0-.76-.23H68a1.08,1.08,0,0,0-.76.23,1.12,1.12,0,0,0-.23.77v.87A.13.13,0,0,0,67.12,61.51Z"/><path class="cls-1" d="M73.64,65.32h-.86a.2.2,0,0,1-.23-.23V58.56a.2.2,0,0,1,.23-.23h.86a.21.21,0,0,1,.24.23v.52h.05a1.07,1.07,0,0,1,.53-.54,1.81,1.81,0,0,1,.87-.21h.51a.21.21,0,0,1,.23.23v.72c0,.17-.08.24-.23.22H75c-.76,0-1.14.41-1.14,1.24v4.35A.21.21,0,0,1,73.64,65.32Z"/><path class="cls-1" d="M82.09,65.32h-3a2.08,2.08,0,0,1-1.57-.56A2.13,2.13,0,0,1,77,63.2V60.45a2.11,2.11,0,0,1,.56-1.56,2.08,2.08,0,0,1,1.57-.56h1.12a1.95,1.95,0,0,1,2.14,2.12V62.2c0,.16-.08.24-.25.24H78.47c-.1,0-.15.05-.15.14v.59a.88.88,0,0,0,1,1h2.77a.22.22,0,0,1,.25.25v.68C82.34,65.25,82.25,65.32,82.09,65.32Zm-3.62-3.81h2.45a.12.12,0,0,0,.14-.14V60.5a1.12,1.12,0,0,0-.23-.77,1.08,1.08,0,0,0-.76-.23h-.75a1,1,0,0,0-.75.23,1.08,1.08,0,0,0-.24.77v.87A.13.13,0,0,0,78.47,61.51Z"/><path class="cls-1" d="M88.15,64.39v.71c0,.15-.08.22-.25.22h-2a2.08,2.08,0,0,1-1.57-.56,2.13,2.13,0,0,1-.56-1.56V60.45a2.11,2.11,0,0,1,.56-1.56,2.08,2.08,0,0,1,1.57-.56h2c.17,0,.25.08.25.23v.72c0,.14-.08.22-.25.22H86.08a.88.88,0,0,0-1,1v2.63a.89.89,0,0,0,1,1H87.9C88.07,64.16,88.15,64.23,88.15,64.39Z"/><path class="cls-1" d="M90.55,65.32h-.86a.21.21,0,0,1-.24-.23V55.92a.21.21,0,0,1,.24-.24h.86c.16,0,.23.08.23.24v3.14h.06a1.35,1.35,0,0,1,1.38-.73h.61a2,2,0,0,1,1.53.55,2.14,2.14,0,0,1,.54,1.57v4.64c0,.15-.09.23-.25.23h-.86a.21.21,0,0,1-.24-.23V60.51a.88.88,0,0,0-1-1h-.64a1,1,0,0,0-1.13,1.16v4.43A.2.2,0,0,1,90.55,65.32Z"/><path class="cls-1" d="M99.74,65.32H98.53A2.08,2.08,0,0,1,97,64.76a2.13,2.13,0,0,1-.56-1.56V60.45A2.11,2.11,0,0,1,97,58.89a2.08,2.08,0,0,1,1.57-.56h1.21a2.13,2.13,0,0,1,1.57.56,2.08,2.08,0,0,1,.57,1.56V63.2a2.09,2.09,0,0,1-.57,1.56A2.13,2.13,0,0,1,99.74,65.32Zm-1-1.16h.84a.88.88,0,0,0,1-1V60.5a.88.88,0,0,0-1-1h-.84a1,1,0,0,0-.75.23,1.08,1.08,0,0,0-.24.77v2.66a1,1,0,0,0,.24.76A1,1,0,0,0,98.72,64.16Z"/><path class="cls-1" d="M106,65.32h-2.53a.21.21,0,0,1-.23-.23v-.67c0-.15.08-.22.23-.22h2.31c.59,0,.89-.21.89-.62v-.16a.91.91,0,0,0-.65-.84l-1.49-.71a2.69,2.69,0,0,1-1-.73,1.61,1.61,0,0,1-.32-1c0-1.18.65-1.77,2-1.77h2.28a.2.2,0,0,1,.22.23v.67c0,.16-.08.24-.22.24h-2a1.24,1.24,0,0,0-.64.14.44.44,0,0,0-.21.38v.15c0,.29.23.55.69.77l1.51.77A1.77,1.77,0,0,1,108,63.54C108,64.73,107.31,65.32,106,65.32Z"/><path class="cls-1" d="M110.61,63.42v1.07a1.9,1.9,0,0,1-.26.82l-.73,1.33a.19.19,0,0,1-.2.12c-.13,0-.2-.07-.2-.22V63.42c0-.15.08-.22.24-.22h.93A.19.19,0,0,1,110.61,63.42Z"/><path class="cls-1" d="M116,65.32h-1c-.13,0-.18-.08-.14-.23l2.39-8.35a.29.29,0,0,1,.33-.23H119a.29.29,0,0,1,.33.23l2.38,8.35c0,.15,0,.23-.15.23h-1c-.09,0-.14,0-.17,0a.3.3,0,0,1-.08-.18l-.52-1.78h-3l-.52,1.78C116.23,65.24,116.15,65.32,116,65.32Zm2.25-7.5-1.2,4.39h2.48l-1.22-4.39Z"/><path class="cls-1" d="M125.47,65h-.62a2,2,0,0,1-1.51-.56,2.19,2.19,0,0,1-.53-1.57v-2.4a1.94,1.94,0,0,1,2.13-2.12H128a.21.21,0,0,1,.24.23v6.79a2.07,2.07,0,0,1-.56,1.56,2.16,2.16,0,0,1-1.57.55h-2.58c-.16,0-.23-.07-.23-.22v-.71c0-.16.07-.23.23-.23h2.37a.89.89,0,0,0,1-1v-1h0A1.38,1.38,0,0,1,125.47,65Zm1.44-2.33v-3c0-.09,0-.13-.15-.13h-1.63c-.65,0-1,.33-1,1v2.28c0,.67.32,1,1,1h.66A1,1,0,0,0,126.91,62.65Z"/><path class="cls-1" d="M132.56,65.32h-.62a2,2,0,0,1-1.51-.55,2.21,2.21,0,0,1-.53-1.57V58.56a.21.21,0,0,1,.23-.23H131a.21.21,0,0,1,.23.23v4.58a.89.89,0,0,0,1,1h.66c.74,0,1.12-.39,1.12-1.17V58.56a.21.21,0,0,1,.23-.23h.87a.21.21,0,0,1,.24.23v6.53a.21.21,0,0,1-.24.23h-.87a.21.21,0,0,1-.23-.23V64.6h-.06A1.35,1.35,0,0,1,132.56,65.32Z"/><path class="cls-1" d="M139.58,65.32h-.53a2.08,2.08,0,0,1-1.57-.56,2.13,2.13,0,0,1-.56-1.56V60.45a2.11,2.11,0,0,1,.56-1.56,2.08,2.08,0,0,1,1.57-.56h3.07a.21.21,0,0,1,.24.23v6.53a.21.21,0,0,1-.24.23h-.87a.21.21,0,0,1-.23-.23V64.6H141A1.37,1.37,0,0,1,139.58,65.32ZM141,63V59.63c0-.09-.05-.13-.15-.13h-1.63a.88.88,0,0,0-1,1v2.63a.89.89,0,0,0,1,1h.66C140.65,64.16,141,63.77,141,63Z"/><path class="cls-1" d="M145.27,63.42v1.07a1.9,1.9,0,0,1-.26.82l-.73,1.33a.19.19,0,0,1-.2.12c-.13,0-.19-.07-.19-.22V63.42c0-.15.07-.22.23-.22h.93A.19.19,0,0,1,145.27,63.42Z"/><path class="cls-1" d="M151.3,65.32h-.86a.2.2,0,0,1-.23-.23V56.74c0-.16.07-.23.23-.23h3.21a2,2,0,0,1,2.14,2.14V59.8a1.84,1.84,0,0,1-1.31,2v.06L156,65.05q.15.27-.18.27H155a.43.43,0,0,1-.43-.23l-1.46-3.15H151.7c-.11,0-.16,0-.16.13v3A.21.21,0,0,1,151.3,65.32Zm.39-4.48h1.74a.89.89,0,0,0,1-1V58.69a.9.9,0,0,0-1-1h-1.74c-.1,0-.15,0-.15.14V60.7C151.54,60.79,151.59,60.84,151.69,60.84Z"/><path class="cls-1" d="M162.45,65.32h-3a2.08,2.08,0,0,1-1.57-.56,2.13,2.13,0,0,1-.56-1.56V60.45a2.11,2.11,0,0,1,.56-1.56,2.08,2.08,0,0,1,1.57-.56h1.12a1.95,1.95,0,0,1,2.14,2.12V62.2c0,.16-.08.24-.25.24h-3.67c-.1,0-.15.05-.15.14v.59a.88.88,0,0,0,1,1h2.77a.22.22,0,0,1,.25.25v.68C162.7,65.25,162.61,65.32,162.45,65.32Zm-3.62-3.81h2.45a.12.12,0,0,0,.14-.14V60.5a1.12,1.12,0,0,0-.23-.77,1.08,1.08,0,0,0-.76-.23h-.75a1,1,0,0,0-.75.23,1.08,1.08,0,0,0-.24.77v.87A.13.13,0,0,0,158.83,61.51Z"/><path class="cls-1" d="M166.76,65.32h-2.53a.21.21,0,0,1-.23-.23v-.67c0-.15.08-.22.23-.22h2.31c.59,0,.89-.21.89-.62v-.16a.91.91,0,0,0-.65-.84l-1.49-.71a2.74,2.74,0,0,1-1-.73,1.61,1.61,0,0,1-.31-1c0-1.18.65-1.77,2-1.77h2.28c.14,0,.21.08.21.23v.67q0,.24-.21.24h-2a1.23,1.23,0,0,0-.63.14.45.45,0,0,0-.22.38v.15c0,.29.24.55.7.77l1.51.77a1.77,1.77,0,0,1,1.25,1.86C168.8,64.73,168.12,65.32,166.76,65.32Z"/><path class="cls-1" d="M170.29,57.16V55.92a.2.2,0,0,1,.22-.22h.89a.19.19,0,0,1,.22.22v1.24c0,.16-.07.24-.22.24h-.89C170.37,57.4,170.29,57.32,170.29,57.16Zm0,7.93V58.56a.2.2,0,0,1,.22-.23h.88a.2.2,0,0,1,.23.23v6.53a.26.26,0,0,1,0,.18.23.23,0,0,1-.18,0h-.87A.21.21,0,0,1,170.29,65.09Z"/><path class="cls-1" d="M174.58,65.32h-.86a.21.21,0,0,1-.23-.23V55.92a.21.21,0,0,1,.23-.24h.86a.21.21,0,0,1,.24.24v9.17A.21.21,0,0,1,174.58,65.32Z"/><path class="cls-1" d="M176.68,57.16V55.92a.2.2,0,0,1,.22-.22h.89a.19.19,0,0,1,.22.22v1.24c0,.16-.07.24-.22.24h-.89C176.76,57.4,176.68,57.32,176.68,57.16Zm0,7.93V58.56a.2.2,0,0,1,.22-.23h.88a.21.21,0,0,1,.23.23v6.53c0,.09,0,.15,0,.18s-.08,0-.17,0h-.87A.21.21,0,0,1,176.68,65.09Z"/><path class="cls-1" d="M184.76,65.32h-3a2.08,2.08,0,0,1-1.57-.56,2.13,2.13,0,0,1-.56-1.56V60.45a2.11,2.11,0,0,1,.56-1.56,2.08,2.08,0,0,1,1.57-.56h1.12a1.95,1.95,0,0,1,2.14,2.12V62.2c0,.16-.08.24-.25.24h-3.67c-.1,0-.15.05-.15.14v.59a.88.88,0,0,0,1,1h2.77c.16,0,.24.08.24.25v.68C185,65.25,184.92,65.32,184.76,65.32Zm-3.62-3.81h2.45a.13.13,0,0,0,.14-.14V60.5a1.12,1.12,0,0,0-.23-.77,1.08,1.08,0,0,0-.76-.23H182a1.08,1.08,0,0,0-.76.23,1.12,1.12,0,0,0-.23.77v.87A.13.13,0,0,0,181.14,61.51Z"/><path class="cls-1" d="M187.66,65.32h-.86a.21.21,0,0,1-.23-.23V58.56a.21.21,0,0,1,.23-.23h.86a.21.21,0,0,1,.24.23v.5h0a1.36,1.36,0,0,1,1.39-.73h.6a2,2,0,0,1,1.54.55,2.18,2.18,0,0,1,.53,1.57v4.64c0,.15-.08.23-.25.23h-.86a.2.2,0,0,1-.23-.23V60.51a.89.89,0,0,0-1-1H189c-.75,0-1.12.38-1.12,1.16v4.43A.21.21,0,0,1,187.66,65.32Z"/><path class="cls-1" d="M197.91,64.39v.71c0,.15-.09.22-.25.22h-2a2.1,2.1,0,0,1-1.57-.56,2.12,2.12,0,0,1-.55-1.56V60.45a1.93,1.93,0,0,1,2.12-2.12h2c.16,0,.25.08.25.23v.72c0,.14-.09.22-.25.22h-1.82a.88.88,0,0,0-1,1v2.63a.89.89,0,0,0,1,1h1.82C197.82,64.16,197.91,64.23,197.91,64.39Z"/><path class="cls-1" d="M199.28,57.16V55.92a.19.19,0,0,1,.22-.22h.89a.2.2,0,0,1,.22.22v1.24c0,.16-.08.24-.22.24h-.89C199.35,57.4,199.28,57.32,199.28,57.16Zm0,7.93V58.56c0-.15.07-.23.22-.23h.87a.21.21,0,0,1,.24.23v6.53a.26.26,0,0,1-.05.18s-.09,0-.17,0h-.88A.21.21,0,0,1,199.28,65.09Z"/><path class="cls-1" d="M204.93,65.32h-.54a2.1,2.1,0,0,1-1.57-.56,2.12,2.12,0,0,1-.55-1.56V60.45a1.93,1.93,0,0,1,2.12-2.12h3.07c.17,0,.25.08.25.23v6.53c0,.15-.08.23-.25.23h-.86a.2.2,0,0,1-.23-.23V64.6h-.06A1.36,1.36,0,0,1,204.93,65.32ZM206.37,63V59.63c0-.09-.05-.13-.15-.13h-1.64a.88.88,0,0,0-1,1v2.63c0,.68.33,1,1,1h.66A1,1,0,0,0,206.37,63Z"/><path class="cls-1" d="M144.11,26.41a14.73,14.73,0,0,0-6.18-5.63,20.17,20.17,0,0,0-9.1-2h-14v32h14a20,20,0,0,0,9.1-2,14.67,14.67,0,0,0,6.18-5.63,15.94,15.94,0,0,0,2.2-8.39A16,16,0,0,0,144.11,26.41ZM133.56,45.88a8.09,8.09,0,0,1-4.39,1.6A8.75,8.75,0,0,1,122,44a9,9,0,0,1-.65-9.82c2.15-4,4.31-6.45,6.47-10.66a1.09,1.09,0,0,1,1.91,0l6.12,10.71A9,9,0,0,1,133.56,45.88Z"/><path class="cls-1" d="M128.67,46a.29.29,0,0,1-.3-.28.3.3,0,0,1,.28-.32,6.35,6.35,0,0,0,4.73-2.08,8.38,8.38,0,0,0,1.54-5.71.3.3,0,0,1,.27-.34.31.31,0,0,1,.33.27,8.87,8.87,0,0,1-1.68,6.17A6.88,6.88,0,0,1,128.68,46Z"/></g></g></svg>